<?xml version="1.0" standalone="no"?><!DOCTYPE svg PUBLIC "-//W3C//DTD SVG 1.1//EN" "http://www.w3.org/Graphics/SVG/1.1/DTD/svg11.dtd"><svg t="1597730391875" class="icon" viewBox="0 0 1024 1024" version="1.1" xmlns="http://www.w3.org/2000/svg" p-id="2701" width="16" height="16" xmlns:xlink="http://www.w3.org/1999/xlink"><defs><style type="text/css"></style></defs><path d="M320 448h533.333333v149.333333H320z" fill="#36D1EB" p-id="2702"></path><path d="M938.666667 268.8C915.2 234.666667 874.666667 213.333333 832 213.333333H270.933333l-8.533333-40.533333c-8.533333-38.4-42.666667-66.133333-83.2-66.133333H85.333333c-23.466667 0-42.666667 19.2-42.666666 42.666666s19.2 42.666667 42.666666 42.666667h93.866667l17.066667 72.533333 98.133333 437.333334c8.533333 38.4 42.666667 66.133333 83.2 66.133333H810.666667c23.466667 0 42.666667-19.2 42.666666-42.666667s-19.2-42.666667-42.666666-42.666666H375.466667l-8.533334-42.666667h405.333334c53.333333 0 102.4-34.133333 121.6-83.2l61.866666-166.4c12.8-42.666667 6.4-87.466667-17.066666-121.6z m-64 89.6l-64 168.533333c-6.4 17.066667-21.333333 27.733333-40.533334 27.733334H347.733333l-57.6-256H832c14.933333 0 27.733333 6.4 36.266667 19.2 8.533333 12.8 10.666667 27.733333 6.4 40.533333zM384 981.333333c-46.933333 0-85.333333-38.4-85.333333-85.333333s38.4-85.333333 85.333333-85.333333 85.333333 38.4 85.333333 85.333333-38.4 85.333333-85.333333 85.333333zM768 981.333333c-46.933333 0-85.333333-38.4-85.333333-85.333333s38.4-85.333333 85.333333-85.333333 85.333333 38.4 85.333333 85.333333-38.4 85.333333-85.333333 85.333333z" fill="#0558FF" p-id="2703"></path></svg>