<?xml version="1.0" encoding="UTF-8"?>
<svg width="16px" height="16px" viewBox="0 0 16 16" version="1.1" xmlns="http://www.w3.org/2000/svg" xmlns:xlink="http://www.w3.org/1999/xlink">
    <title>icon-分支-蓝</title>
    <g id="页面-1" stroke="none" stroke-width="1" fill="none" fill-rule="evenodd">
        <g id="桌面端-HD备份-22" transform="translate(-675.000000, -320.000000)" fill-rule="nonzero">
            <g id="icon-分支-进行中/已完成" transform="translate(675.000000, 320.000000)">
                <g id="编组" transform="translate(0.000000, 0.000000)">
                    <rect id="矩形" fill="#000000" opacity="0" x="1.77635684e-14" y="1.77635684e-14" width="15.9999992" height="15.9999992"></rect>
                    <path d="M14.2445599,11.0058848 C13.5393096,10.5976693 12.6797339,10.7071906 12.100599,11.2182896 L11.2211103,10.70885 L11.2211103,8.19152117 C11.2211103,7.9309934 11.0817197,7.68871917 10.8560396,7.559285 L8.59923853,6.25996499 L8.59923853,5.14649919 C9.33269887,4.89758731 9.86039205,4.20395287 9.86039205,3.3858625 C9.86039205,2.35868615 9.02902637,1.52732047 8.00185002,1.52732047 C6.97467367,1.52732047 6.143308,2.35868615 6.143308,3.3858625 C6.143308,4.20395287 6.67100118,4.89758731 7.40446151,5.14649919 L7.40446151,6.25996499 L5.14766048,7.559285 C4.92198038,7.68871917 4.78258973,7.9309934 4.78258973,8.19152117 L4.78258973,10.7071906 L3.90310109,11.2166302 C3.32396612,10.7055311 2.46273102,10.5960099 1.75914011,11.0042254 C0.87135441,11.5186433 0.569341331,12.6536814 1.07878098,13.5414671 C1.58988003,14.4292528 2.71993996,14.7345847 3.60440684,14.2218263 C4.30965716,13.8136108 4.64485849,13.0104551 4.49385195,12.2504442 L5.30198585,11.7808305 L7.63511985,13.1249546 C7.74795991,13.1896717 7.87407526,13.2228599 8.00019061,13.2228599 C8.12630596,13.2228599 8.25242131,13.1896717 8.36526136,13.1249546 L10.696736,11.7824899 L11.5048699,12.2521036 C11.3538633,13.0104551 11.6907241,13.8152702 12.394315,14.2234857 C13.2787818,14.7362442 14.4105012,14.4325717 14.9199408,13.5431266 C15.4310399,12.6536814 15.1290268,11.5186433 14.2445599,11.0058848 Z M3.13774455,13.408836 C2.70105449,13.6616566 2.13986947,13.5122626 1.88896422,13.0717419 C1.63614366,12.6331366 1.78553763,12.0700362 2.22414299,11.8172157 C2.66083304,11.5643951 3.22201807,11.7137891 3.47292331,12.1543097 C3.72574387,12.5929151 3.57634991,13.1560154 3.13774455,13.408836 Z M7.08526097,3.3858625 C7.08526097,2.8807451 7.4950732,2.47093286 8.00019061,2.47093286 C8.50530801,2.47093286 8.91512025,2.8807451 8.91512025,3.3858625 C8.91512025,3.89097991 8.50530801,4.30079214 8.00019061,4.30079214 C7.4950732,4.30079214 7.08526097,3.89097991 7.08526097,3.3858625 Z M8.00019061,12.0797297 L5.8689017,10.8516182 L5.8689017,8.39888899 L8.00019061,7.17077743 L10.1314795,8.39888899 L10.1314795,10.8516182 L8.00019061,12.0797297 Z M14.1085048,13.0717303 C13.8566052,13.5087378 13.2993729,13.6594959 12.8642736,13.4075964 C12.4291744,13.1556968 12.2784163,12.5946478 12.5303159,12.1576402 C12.7822154,11.7206326 13.3394478,11.5698746 13.774547,11.8217741 C14.2115546,12.0736737 14.3604043,12.6328144 14.1085048,13.0717303 Z" id="形状" fill="#1791FF"></path>
                </g>
            </g>
        </g>
    </g>
</svg>