<?xml version="1.0" encoding="UTF-8"?>
<svg width="16px" height="17px" viewBox="0 0 16 17" version="1.1" xmlns="http://www.w3.org/2000/svg" xmlns:xlink="http://www.w3.org/1999/xlink">
    <title>泳道图-icon-灰</title>
    <g id="页面-1" stroke="none" stroke-width="1" fill="none" fill-rule="evenodd" opacity="0.7">
        <g id="桌面端-HD备份-22" transform="translate(-413.000000, -833.000000)" fill-rule="nonzero">
            <g id="编组-3" transform="translate(413.000000, 833.428932)">
                <rect id="矩形" fill="#000000" opacity="0" x="0" y="0" width="16" height="16"></rect>
                <polygon id="路径" fill="#FFFFFF" points="2.42857143 7.27142857 4.28571429 7.27142857 4.28571429 8.66428571 2.42857143 8.66428571"></polygon>
                <path d="M11.7142857,11.9142857 L13.5714286,11.9142857 L13.5714286,13.3071429 L11.7142857,13.3071429 L11.7142857,11.9142857 Z M11.7142857,7.27142857 L13.5714286,7.27142857 L13.5714286,8.66428571 L11.7142857,8.66428571 L11.7142857,7.27142857 Z M11.7142857,2.62857143 L13.5714286,2.62857143 L13.5714286,4.02142857 L11.7142857,4.02142857 L11.7142857,2.62857143 Z" id="形状" fill="#FFFFFF"></path>
                <path d="M14.5,11.5857143 L14.5,13.6357143 C14.5,13.9670851 14.2313708,14.2357143 13.9,14.2357143 L11.3857143,14.2357143 C11.0543434,14.2357143 10.7857143,13.9670851 10.7857143,13.6357143 L10.7857143,13.075 L10.7857143,13.075 L7.07142857,13.075 L7.07142857,8.43214286 L5.21428571,8.43214286 L5.21428571,8.99285714 C5.21428571,9.32422799 4.94565656,9.59285714 4.61428571,9.59285714 L2.1,9.59285714 C1.76862915,9.59285714 1.5,9.32422799 1.5,8.99285714 L1.5,6.94285714 C1.5,6.61148629 1.76862915,6.34285714 2.1,6.34285714 L4.61428571,6.34285714 C4.94565656,6.34285714 5.21428571,6.61148629 5.21428571,6.94285714 L5.21428571,7.50357143 L5.21428571,7.50357143 L7.07142857,7.50357143 L7.07142857,2.86071429 L10.7857143,2.86071429 L10.7857143,2.3 C10.7857143,1.96862915 11.0543434,1.7 11.3857143,1.7 L13.9,1.7 C14.2313708,1.7 14.5,1.96862915 14.5,2.3 L14.5,4.35 C14.5,4.68137085 14.2313708,4.95 13.9,4.95 L11.3857143,4.95 C11.0543434,4.95 10.7857143,4.68137085 10.7857143,4.35 L10.7857143,3.78928571 L10.7857143,3.78928571 L8,3.78928571 L8,7.50357143 L10.7857143,7.50357143 L10.7857143,6.94285714 C10.7857143,6.61148629 11.0543434,6.34285714 11.3857143,6.34285714 L13.9,6.34285714 C14.2313708,6.34285714 14.5,6.61148629 14.5,6.94285714 L14.5,8.99285714 C14.5,9.32422799 14.2313708,9.59285714 13.9,9.59285714 L11.3857143,9.59285714 C11.0543434,9.59285714 10.7857143,9.32422799 10.7857143,8.99285714 L10.7857143,8.43214286 L10.7857143,8.43214286 L8,8.43214286 L8,12.1464286 L10.7857143,12.1464286 L10.7857143,11.5857143 C10.7857143,11.2543434 11.0543434,10.9857143 11.3857143,10.9857143 L13.9,10.9857143 C14.2313708,10.9857143 14.5,11.2543434 14.5,11.5857143 Z M13.5714286,13.3071429 L13.5714286,11.9142857 L11.7142857,11.9142857 L11.7142857,13.3071429 L13.5714286,13.3071429 Z M13.5714286,8.66428571 L13.5714286,7.27142857 L11.7142857,7.27142857 L11.7142857,8.66428571 L13.5714286,8.66428571 Z M13.5714286,4.02142857 L13.5714286,2.62857143 L11.7142857,2.62857143 L11.7142857,4.02142857 L13.5714286,4.02142857 Z M4.28571429,8.66428571 L4.28571429,7.27142857 L2.42857143,7.27142857 L2.42857143,8.66428571 L4.28571429,8.66428571 Z" id="形状" fill="#1791FF"></path>
            </g>
        </g>
    </g>
</svg>