<?xml version="1.0" encoding="UTF-8"?>
<svg width="16px" height="16px" viewBox="0 0 16 16" version="1.1" xmlns="http://www.w3.org/2000/svg" xmlns:xlink="http://www.w3.org/1999/xlink">
    <title>icon-聚合-灰</title>
    <g id="页面-1" stroke="none" stroke-width="1" fill="none" fill-rule="evenodd" opacity="0.6">
        <g id="桌面端-HD备份-22" transform="translate(-872.000000, -365.000000)" fill-rule="nonzero">
            <g id="icon-聚合" transform="translate(872.000001, 365.000001)">
                <g id="编组" transform="translate(0.000000, 0.000000)">
                    <rect id="矩形" fill="#000000" opacity="0" x="1.77635684e-14" y="1.77635684e-14" width="15.9999992" height="15.9999992"></rect>
                    <path d="M10.9022178,1.23942482 C11.1689151,1.23942482 11.385116,1.45562571 11.385116,1.72232302 L11.3844018,4.38242482 L14.041056,5.92353734 C14.1925734,6.01099332 14.2849402,6.17355883 14.2825521,6.34848775 L14.2825521,9.68048531 C14.283735,9.85517099 14.1866614,10.0157158 14.0313981,10.0957778 L11.3844018,11.6124248 L11.385116,14.2776762 C11.385116,14.5443735 11.1689151,14.7605744 10.9022178,14.7605744 C10.6355204,14.7605744 10.4193196,14.5443735 10.4193196,14.2776762 L10.4184018,11.6604248 L7.97740184,10.2444248 L5.58940184,11.6124248 L5.59033758,14.2776762 C5.59033758,14.5443735 5.37413669,14.7605744 5.10743938,14.7605744 C4.84074207,14.7605744 4.62454118,14.5443735 4.62454118,14.2776762 L4.62440184,11.6614248 L1.95894313,10.1150937 C1.80742579,10.0276377 1.71505902,9.86507219 1.71744705,9.69014328 L1.71744705,6.31951386 C1.71626419,6.14482818 1.81333781,5.98428333 1.9686011,5.90422141 L4.62440184,4.38042482 L4.62454118,1.72232302 C4.62454118,1.45562571 4.84074207,1.23942482 5.10743938,1.23942482 C5.37413669,1.23942482 5.59033758,1.45562571 5.59033758,1.72232302 L5.58940184,4.38242482 L7.98840184,5.77442482 L10.4184018,4.38142482 L10.4193196,1.72232302 C10.4193196,1.45562571 10.6355204,1.23942482 10.9022178,1.23942482 Z M5.10743938,5.21850597 L2.70260636,6.59959481 L2.69294839,9.38108843 L5.10743938,10.7814932 L7.51140184,9.40542482 L7.51140184,6.61242482 L5.10743938,5.21850597 Z M10.9022178,5.21850597 L8.49738473,6.59959481 L8.48772676,9.38108843 L10.9022178,10.7814932 L13.3167087,9.40040436 L13.3167087,6.61891074 L10.9022178,5.21850597 Z M10.9022178,7.03420319 C11.4356124,7.03420319 11.8680141,7.46660496 11.8680141,7.99999959 C11.8680141,8.53339421 11.4356124,8.96579598 10.9022178,8.96579598 C10.3688231,8.96579598 9.93642136,8.53339421 9.93642136,7.99999959 C9.93642136,7.46660496 10.3688231,7.03420319 10.9022178,7.03420319 Z M5.10743938,7.03420319 C5.640834,7.03420319 6.07323578,7.46660496 6.07323578,7.99999959 C6.07323578,8.53339421 5.640834,8.96579598 5.10743938,8.96579598 C4.57404476,8.96579598 4.14164299,8.53339421 4.14164299,7.99999959 C4.14164299,7.46660496 4.57404476,7.03420319 5.10743938,7.03420319 Z" id="形状结合" fill="#333333"></path>
                </g>
            </g>
        </g>
    </g>
</svg>