<?xml version="1.0" encoding="UTF-8"?>
<svg width="16px" height="16px" viewBox="0 0 16 16" version="1.1" xmlns="http://www.w3.org/2000/svg" xmlns:xlink="http://www.w3.org/1999/xlink">
    <title>icon-路由决策-蓝</title>
    <g id="页面-1" stroke="none" stroke-width="1" fill="none" fill-rule="evenodd">
        <g id="桌面端-HD备份-22" transform="translate(-675.000000, -277.000000)" fill-rule="nonzero">
            <g id="icon-路由决策-进行中/已完成" transform="translate(675.000000, 277.000000)">
                <g id="编组" transform="translate(0.000000, 0.000000)">
                    <rect id="矩形" fill="#000000" opacity="0" x="1.77635684e-14" y="1.77635684e-14" width="15.9999992" height="15.9999992"></rect>
                    <path d="M5.79861041,6.00044353 C6.02903802,6.00044353 6.22068418,6.16648663 6.26042743,6.38545135 L6.26798976,6.46982289 L6.26798976,8.44121618 L13.7217339,8.44121618 C14.0516644,8.44121618 14.3248048,8.68436297 14.37174,9.00124126 L14.378865,9.09834728 L14.378865,14.0456057 C14.378865,14.3755361 14.1357182,14.6486766 13.81884,14.6956118 L13.7217339,14.7027368 L2.87907081,14.7027368 C2.54914037,14.7027368 2.27599991,14.45959 2.2290647,14.1427117 L2.22193971,14.0456057 L2.22193971,9.09834728 C2.22193971,8.76841684 2.4650865,8.49527637 2.78196479,8.44834117 L2.87907081,8.44121618 L5.32923105,8.44121618 L5.32923105,6.46982289 C5.32923105,6.21059182 5.53937935,6.00044353 5.79861041,6.00044353 Z M13.3743984,9.40799828 L3.22640638,9.40799828 L3.22640638,13.7359547 L13.3743984,13.7359547 L13.3743984,9.40799828 Z M11.5250385,10.5534233 C12.0849776,10.5534233 12.538898,11.0073436 12.538898,11.5672827 C12.538898,12.1272218 12.0849776,12.5811421 11.5250385,12.5811421 C10.9650995,12.5811421 10.5111791,12.1272218 10.5111791,11.5672827 C10.5111791,11.0073436 10.9650995,10.5534233 11.5250385,10.5534233 Z M11.5250385,11.1721375 C11.3068059,11.1721375 11.1298933,11.34905 11.1298933,11.5672827 C11.1298933,11.7855154 11.3068059,11.9624279 11.5250385,11.9624279 C11.7432712,11.9624279 11.9201838,11.7855154 11.9201838,11.5672827 C11.9201838,11.34905 11.7432712,11.1721375 11.5250385,11.1721375 Z M5.79861041,3.2123302 C7.0481041,3.2123302 8.0610189,4.22524496 8.0610189,5.47473865 C8.0610189,5.73396971 7.85087061,5.94411801 7.59163955,5.94411801 C7.33240849,5.94411801 7.12226019,5.73396971 7.12226019,5.47473865 C7.12226019,4.74370706 6.529642,4.15108887 5.79861041,4.15108887 C5.06757882,4.15108887 4.47496062,4.74370706 4.47496062,5.47473865 C4.47496062,5.73396971 4.26481233,5.94411801 4.00558127,5.94411801 C3.74635021,5.94411801 3.53620191,5.73396971 3.53620191,5.47473865 C3.53620191,4.22524496 4.54911671,3.2123302 5.79861041,3.2123302 Z M5.79861041,1.29726238 C8.10576684,1.29726238 9.97608667,3.16758222 9.97608667,5.47473865 C9.97608667,5.73396971 9.76593838,5.94411801 9.50670732,5.94411801 C9.24747626,5.94411801 9.03732796,5.73396971 9.03732796,5.47473865 C9.03732796,3.68604434 7.58730472,2.23602109 5.79861041,2.23602109 C4.00991609,2.23602109 2.55989285,3.68604434 2.55989285,5.47473865 C2.55989285,5.73396971 2.34974455,5.94411801 2.09051349,5.94411801 C1.83128243,5.94411801 1.62113414,5.73396971 1.62113414,5.47473865 C1.62113414,3.16758222 3.49145397,1.29726238 5.79861041,1.29726238 Z" id="形状结合" fill="#1791FF"></path>
                </g>
            </g>
        </g>
    </g>
</svg>