<?xml version="1.0" encoding="UTF-8"?>
<svg width="16px" height="16px" viewBox="0 0 16 16" version="1.1" xmlns="http://www.w3.org/2000/svg" xmlns:xlink="http://www.w3.org/1999/xlink">
    <title>icon-子流程-灰</title>
    <g id="页面-1" stroke="none" stroke-width="1" fill="none" fill-rule="evenodd" opacity="0.6">
        <g id="桌面端-HD备份-22" transform="translate(-872.000000, -233.000000)" fill-rule="nonzero">
            <g id="icon-子流程" transform="translate(872.000000, 233.000001)">
                <g id="编组" transform="translate(0.000000, 0.000000)">
                    <rect id="矩形" fill="#000000" opacity="0" x="1.77635684e-14" y="1.77635684e-14" width="15.9999992" height="15.9999992"></rect>
                    <path d="M11.9562447,0.808642359 C13.0517983,0.808642359 13.9400286,1.69671207 13.9400286,2.79242628 C13.9400286,3.71670958 13.3079935,4.49323996 12.4526294,4.71360041 L12.4521505,5.76818245 L12.4501107,5.79881819 C12.4733662,5.81735566 12.4958225,5.83738843 12.5173506,5.85891652 L14.2006682,7.54223418 C14.5106094,7.85217532 14.5106094,8.35450481 14.2006682,8.66444595 L12.5173506,10.3477636 L12.4518751,10.4036424 L12.4526294,11.2863988 C13.3079935,11.5067592 13.9400286,12.2832896 13.9400286,13.2075729 C13.9400286,14.3032871 13.0517983,15.1913568 11.9562447,15.1913568 C11.0072593,15.1913568 10.2138347,14.5248918 10.0185238,13.634515 L3.79769379,13.6345851 C3.75459901,13.6345851 3.71275867,13.6296447 3.67281112,13.6203474 C3.63660038,13.6295535 3.59717115,13.6344246 3.55660699,13.6344246 C3.28279888,13.6345851 3.06070115,13.4124873 3.06070115,13.1386792 L3.0598751,9.98364236 L2.36035655,9.98370321 C1.92210298,9.98370321 1.5668751,9.62847533 1.5668751,9.19022176 L1.5668751,6.80961682 C1.5668751,6.37136325 1.92210298,6.01613537 2.36035655,6.01613537 L4.74096149,6.01613537 C5.17921505,6.01613537 5.53444293,6.37136325 5.53444293,6.80961682 L5.5338751,7.50364236 L9.7488751,7.50364236 L11.3951388,5.85891652 L11.4613906,5.80073995 C11.4606931,5.78997723 11.4603388,5.77912111 11.4603388,5.76818245 L11.4598599,4.71359046 C10.6044959,4.49319757 9.97246075,3.71657411 9.97246075,2.79242628 C9.97246075,1.69687266 10.860691,0.808642359 11.9562447,0.808642359 Z M11.9562447,12.2156006 C11.4084679,12.2156006 10.9642724,12.6596355 10.9642724,13.2075729 C10.9642724,13.7555103 11.4083073,14.1995451 11.9562447,14.1995451 C12.5041821,14.1995451 12.9482169,13.7555103 12.9482169,13.2075729 C12.9482169,12.6596355 12.5040215,12.2156006 11.9562447,12.2156006 Z M9.58374682,8.49709636 L5.5338751,8.49564236 L5.53444293,9.19022176 C5.53444293,9.62847533 5.17921505,9.98370321 4.74096149,9.98370321 L4.0518751,9.98364236 L4.0518751,12.6416424 L10.0543909,12.6415578 C10.2515783,11.9780725 10.7865237,11.4599003 11.4598599,11.2864087 L11.4593054,10.4053699 C11.4371435,10.3875334 11.4157171,10.3683313 11.3951388,10.3477636 L9.71182112,8.66444595 C9.66069681,8.61332164 9.61800538,8.55696283 9.58374682,8.49709636 Z M11.6350073,6.81839063 L10.6712952,7.78210271 C10.4938516,7.95954635 10.4938516,8.24713378 10.6712952,8.42457743 L11.6350073,9.3882895 C11.812451,9.56573315 12.1000384,9.56573315 12.277482,9.3882895 L13.2411941,8.42457743 C13.4186378,8.24713378 13.4186378,7.95954635 13.2411941,7.78210271 L12.277482,6.81839063 C12.1000384,6.64094698 11.812451,6.64094698 11.6350073,6.81839063 Z M4.22351492,6.8781646 L2.87748193,6.8781646 C2.62959539,6.8781646 2.42874374,7.07901626 2.42874374,7.3269028 L2.42874374,8.67293578 C2.42874374,8.92082232 2.62959539,9.12167398 2.87748193,9.12167398 L4.22351492,9.12167398 C4.47140145,9.12167398 4.67225311,8.92082232 4.67225311,8.67293578 L4.67225311,7.3269028 C4.67225311,7.07901626 4.47140145,6.8781646 4.22351492,6.8781646 Z M11.9562447,1.80045402 C11.4084679,1.80045402 10.9642724,2.24448888 10.9642724,2.79242628 C10.9642724,3.34036368 11.4083073,3.78439853 11.9562447,3.78439853 C12.5041821,3.78439853 12.9482169,3.34036368 12.9482169,2.79242628 C12.9482169,2.24448888 12.5040215,1.80045402 11.9562447,1.80045402 Z" id="形状结合" fill="#333333"></path>
                </g>
            </g>
        </g>
    </g>
</svg>