<?xml version="1.0" encoding="UTF-8"?>
<svg width="16px" height="16px" viewBox="0 0 16 16" version="1.1" xmlns="http://www.w3.org/2000/svg" xmlns:xlink="http://www.w3.org/1999/xlink">
    <title>icon-人工节点-蓝</title>
    <g id="页面-1" stroke="none" stroke-width="1" fill="none" fill-rule="evenodd" opacity="0.7">
        <g id="桌面端-HD备份-22" transform="translate(-478.000000, -189.000000)" fill-rule="nonzero">
            <g id="icon-人工节点-进行中/已完成备份-2" transform="translate(478.000000, 189.000000)">
                <g id="icon-人工节点-蓝" transform="translate(0.000000, 0.000000)">
                    <g id="人工节点" transform="translate(0.000000, 0.000000)">
                        <rect id="矩形" fill="#000000" opacity="0" x="1.77635684e-14" y="3.58824082e-13" width="15.9999992" height="15.9999992"></rect>
                        <path d="M5.81989522,7.03028098 C4.44481695,7.03028098 3.32986197,5.91976412 3.32986197,4.54986366 C3.32986197,3.17996321 4.44481695,2.06944635 5.82014178,2.06944635 C7.19522005,2.06944635 8.30992846,3.17996321 8.30992846,4.54986366 C8.30992846,5.91976412 7.19522004,7.03028098 5.81989522,7.03028098 Z M5.81989522,6.03811406 C6.64513944,6.03811406 7.31406311,5.37190256 7.31406311,4.54986366 C7.31406311,3.72782476 6.64513944,3.06161327 5.81989522,3.06161327 C4.99489757,3.06161327 4.32597389,3.72782476 4.32597389,4.54986366 C4.32597389,5.37190256 4.99489757,6.03811406 5.82014178,6.03811406 L5.81989522,6.03811406 Z M5.81989522,11.9911156 C3.61957274,11.9911156 1.83594065,11.4437472 1.83594065,10.0499302 C1.83594065,8.65611316 3.61957275,7.52636444 5.81989522,7.52636444 C8.02021769,7.52636444 9.80409635,8.65611316 9.80409635,10.0499302 C9.80409635,11.4437472 8.02021769,11.9911156 5.81989522,11.9911156 L5.81989522,11.9911156 Z M5.81989522,10.9989487 C7.78524377,10.9989487 8.80823099,10.5576021 8.80823099,10.0499302 C8.80823099,9.32257122 7.53868141,8.51853137 5.81989522,8.51853137 C4.1013556,8.51853137 2.83205258,9.32232466 2.83205258,10.0499302 C2.83205258,10.5578486 3.85479323,10.9989487 5.81989522,10.9989487 Z M4.72639117,13.5905656 C4.56768224,13.5091691 4.46529825,13.3484134 4.45864651,13.1701729 C4.45199478,12.9919324 4.54211222,12.8239928 4.69431289,12.7309935 C4.84651356,12.6379942 5.03707116,12.6344327 5.19264058,12.7216799 C5.98002458,13.1440212 6.85993662,13.3642958 7.75343723,13.362742 C10.7491699,13.362742 13.1778091,10.9341028 13.1778091,7.93837015 C13.1778091,5.3553829 11.3584255,3.14519792 8.8612419,2.6271704 C8.59454781,2.57181622 8.42322296,2.31074452 8.47857713,2.04405043 C8.53393131,1.77735634 8.79500301,1.60603148 9.0616971,1.66138565 C12.0140348,2.27384655 14.1640585,4.88592816 14.1640585,7.93837015 C14.1640585,11.4790056 11.2940727,14.3489978 7.75343723,14.3489978 C6.69721796,14.3504851 5.65713023,14.0898914 4.72639117,13.5905656 L4.72639117,13.5905656 Z M11.5135132,9.13518383 C11.4309245,9.39472886 11.1535703,9.53818031 10.8940253,9.45559161 C10.6344802,9.37300292 10.4910288,9.09564873 10.5736175,8.83610369 C10.6653387,8.54861198 10.7121855,8.24681965 10.7121855,7.93837015 C10.7121855,6.85941327 10.1302984,5.88277977 9.20766201,5.36080726 C8.97629703,5.22412151 8.89696735,4.92735416 9.02927036,4.69345534 C9.16157337,4.45955652 9.45679364,4.37465037 9.69314329,4.50252369 C10.9326428,5.20199825 11.6990346,6.51512617 11.6984353,7.93837015 C11.6984353,8.34864991 11.6355615,8.75128624 11.5135132,9.13518383 L11.5135132,9.13518383 Z" id="形状" fill="#1791FF"></path>
                    </g>
                </g>
            </g>
        </g>
    </g>
</svg>