<?xml version="1.0" encoding="UTF-8"?>
<svg width="16px" height="16px" viewBox="0 0 16 16" version="1.1" xmlns="http://www.w3.org/2000/svg" xmlns:xlink="http://www.w3.org/1999/xlink">
    <title>icon-开始-灰</title>
    <g id="页面-1" stroke="none" stroke-width="1" fill="none" fill-rule="evenodd" opacity="0.6">
        <g id="桌面端-HD备份-22" transform="translate(-872.000000, -145.000000)" fill-rule="nonzero">
            <g id="icon-开始" transform="translate(872.000001, 145.000000)">
                <g id="编组" transform="translate(0.000000, 0.000000)">
                    <rect id="矩形" fill="#000000" opacity="0" x="3.55271368e-15" y="1.77635684e-14" width="15.9999992" height="15.9999992"></rect>
                    <path d="M4.9043859,2.28545805 C7.84667537,0.691488399 11.5183683,1.59200263 13.3892665,4.3664479 C15.2601647,7.14089316 14.7187604,10.8824351 12.1381404,13.012742 C9.55752046,15.1430488 5.78116687,14.9658244 3.41140052,12.6031958 C2.81622636,12.008335 2.34142104,11.3042233 2.01301956,10.5294691 C0.710905065,7.44688829 1.96209644,3.87942769 4.9043859,2.28545805 Z M11.8953365,4.13239985 C10.3353642,2.57022542 7.98777722,2.10196962 5.94783782,2.94609629 C3.90789842,3.79022296 2.57760241,5.78038537 2.57760241,7.98807706 C2.58098245,10.9972765 5.01732754,13.4370608 8.02651921,13.4446912 C10.2342087,13.4477978 12.2262457,12.1203127 13.0732491,10.0815661 C13.9202526,8.04281945 13.4553088,5.69457428 11.8953365,4.13239985 Z M6.60198591,5.19131514 C6.90327973,5.029972 7.26906488,5.04832044 7.55270037,5.23900469 L7.55270037,5.23900469 L10.3802298,7.08505217 C10.6813258,7.28475774 10.8603712,7.62372719 10.855587,7.98500031 C10.8597081,8.35613099 10.6748182,8.7038863 10.364846,8.90802405 L10.364846,8.90802405 L7.56346897,10.7540715 C7.40713882,10.8549478 7.22493465,10.9083801 7.03888382,10.9079119 C6.88665068,10.9075139 6.73695361,10.8688995 6.60352429,10.7956076 C6.26644516,10.5988577 6.06221028,10.2351195 6.06970889,9.84489314 L6.06970889,9.84489314 L6.06970889,6.1527982 C6.05793357,5.75907544 6.26206587,5.39033935 6.60198591,5.19131514 Z M7.13887806,6.23125522 L7.13887806,9.74643728 L9.78487943,8.00192242 L9.78487943,8.00192242 L9.78487943,7.96038635 L7.13887806,6.23125522 Z" id="形状结合" fill="#333333"></path>
                </g>
            </g>
        </g>
    </g>
</svg>