<?xml version="1.0" encoding="UTF-8"?>
<svg width="16px" height="17px" viewBox="0 0 16 17" version="1.1" xmlns="http://www.w3.org/2000/svg" xmlns:xlink="http://www.w3.org/1999/xlink">
    <title>icon-结束-灰</title>
    <g id="页面-1" stroke="none" stroke-width="1" fill="none" fill-rule="evenodd" opacity="0.6">
        <g id="桌面端-HD备份-22" transform="translate(-872.000000, -409.000000)" fill-rule="nonzero">
            <g id="icon-结束" transform="translate(872.000001, 409.550034)">
                <g id="icon-结束-灰" transform="translate(-0.000000, 0.000000)">
                    <g id="编组" transform="translate(0.000000, 0.000000)">
                        <rect id="矩形" fill="#000000" opacity="0" x="-1.0658141e-14" y="1.77635684e-14" width="15.9999992" height="15.9999992"></rect>
                        <path d="M4.904537,2.28573697 C7.84668285,0.691845125 11.5181966,1.59231541 13.3890034,4.36662525 C15.2598103,7.14093509 14.7184324,10.8822944 12.1379384,13.0124973 C9.55744444,15.1427001 5.78127517,14.9654844 3.41162449,12.6029711 C2.81647938,12.0081394 2.34169723,11.304062 2.01331178,10.5293456 C0.711260843,7.44691528 1.96239115,3.87962882 4.904537,2.28573697 Z M11.8951464,4.13258863 C10.3352502,2.57049045 7.98777782,2.1022575 5.94793799,2.94634297 C3.90809816,3.79042843 2.57786708,5.78049371 2.57786708,7.98807764 C2.58124695,10.9971302 5.01747312,13.4367954 8.02651792,13.4444254 C10.2340997,13.4475319 12.2260394,12.1201116 13.0730015,10.0814645 C13.9199636,8.04281736 13.4550426,5.69468681 11.8951464,4.13258863 Z M9.52712247,5.80121747 C9.89816696,5.80121747 10.1987817,6.10183222 10.1987817,6.4723041 L10.1987817,9.52712247 C10.1987817,9.89816696 9.89816696,10.1987817 9.52769507,10.1987817 L6.4723041,10.1987817 C6.10183222,10.1987817 5.80121747,9.89816696 5.80121747,9.52769507 L5.80121747,6.4723041 C5.80121747,6.10183222 6.10183222,5.80121747 6.4723041,5.80121747 L9.52712247,5.80121747 Z M9.198,6.801 L6.801,6.801 L6.801,9.198 L9.198,9.198 L9.198,6.801 Z" id="形状结合" fill="#333333"></path>
                    </g>
                </g>
            </g>
        </g>
    </g>
</svg>